# xmcd
#
# Track frame offsets:
#	150
#	10599
#	21541
#	34204
#	44926
#	55595
#	68842
#	79813
#	89314
#	109816
#
# Disc length: 1585 seconds
#
# Revision: 1
# Processed by: cddbd v1.5.2PL0 Copyright (c) Steve Scherf et al.
# Submitted via: audiograbber 1.83.01
#
DISCID=81062f0a
DTITLE=Various Artist - All Star Country Western Cavalcade CD2
DYEAR=1969
DGENRE=Country
TTITLE0=Ferlin Husky - Misty Blue
TTITLE1=Wanda Jsckson - Kickin' Our Hearts Around
TTITLE2=Bobby Austin - Hard Bad Times
TTITLE3=Wynn Stewart - Daddy's Girl
TTITLE4=Buck Owens - Act Naturally
TTITLE5=Glen Campbell - My Baby's Gone
TTITLE6=Jean Shepard - Too Many Memories All Around
TTITLE7=Ned Miller - Invisible Tears
TTITLE8=Tex Ritter - A Border Affair
TTITLE9=Charlie Louvin - No Other Way to Turn
EXTD=
EXTT0=
EXTT1=
EXTT2=
EXTT3=
EXTT4=
EXTT5=
EXTT6=
EXTT7=
EXTT8=
EXTT9=
PLAYORDER=
